<?xml version="1.0" encoding="UTF-8"?>
<svg width="27px" height="26px" viewBox="0 0 27 26" version="1.1" xmlns="http://www.w3.org/2000/svg" xmlns:xlink="http://www.w3.org/1999/xlink">
    <!-- Generator: Sketch 48.2 (47327) - http://www.bohemiancoding.com/sketch -->
    <title>Github</title>
    <desc>Created with Sketch.</desc>
    <defs></defs>
    <g id="Desktop" stroke="none" stroke-width="1" fill="none" fill-rule="evenodd" transform="translate(-550.000000, -1083.000000)">
        <g id="Social-Icons" transform="translate(449.000000, 1084.000000)" fill="#444444" stroke="#979797">
            <g id="Github" transform="translate(102.000000, 0.000000)">
                <path d="M12.3031313,0 C5.50907134,0 0,5.50830235 0,12.3046693 C0,17.7399172 3.52506743,22.3515728 8.41509879,23.9787636 C9.0302938,24.0918057 9.25483998,23.7119228 9.25483998,23.3858694 C9.25483998,23.0936518 9.24407407,22.3200441 9.23792212,21.2934374 C5.81513086,22.0370544 5.09304572,19.6439458 5.09304572,19.6439458 C4.53398725,18.2228453 3.72731279,17.8445004 3.72731279,17.8445004 C2.60996484,17.0808895 3.8119021,17.0962694 3.8119021,17.0962694 C5.0461371,17.1831657 5.69593683,18.3643401 5.69593683,18.3643401 C6.79405993,20.2445299 8.57581848,19.7016203 9.2771408,19.3863329 C9.3886449,18.5911933 9.70700831,18.0490527 10.0584385,17.7414552 C7.32620361,17.4307817 4.4540119,16.3757223 4.4540119,11.6610215 C4.4540119,10.3175894 4.93309501,9.21946627 5.72054463,8.35896224 C5.59366066,8.04751977 5.17148308,6.7971359 5.84050766,5.10304263 C5.84050766,5.10304263 6.87403528,4.77237532 9.22408023,6.36419241 C10.2060853,6.09119962 11.2580687,5.95508773 12.3046693,5.94970477 C13.3497318,5.95508773 14.4024843,6.09119962 15.3852583,6.36419241 C17.7337653,4.77237532 18.7649859,5.10304263 18.7649859,5.10304263 C19.4363174,6.7971359 19.0141399,8.04751977 18.8872559,8.35896224 C19.6762435,9.21946627 20.1522506,10.3175894 20.1522506,11.6610215 C20.1522506,16.3872572 17.275445,17.4277057 14.5347512,17.7322273 C14.9761536,18.1121102 15.3698784,18.8626481 15.3698784,20.0107558 C15.3698784,21.6556335 15.3544985,22.9821477 15.3544985,23.3858694 C15.3544985,23.7149988 15.5759687,24.0979577 16.2003917,23.9772256 C21.0858091,22.3469589 24.6078005,17.7383792 24.6078005,12.3046693 C24.6078005,5.50830235 19.0987292,0 12.3031313,0" id="Fill-34"></path>
            </g>
        </g>
    </g>
</svg>