<?xml version="1.0" encoding="UTF-8"?>
<svg width="175px" height="24px" viewBox="0 0 175 24" version="1.1" xmlns="http://www.w3.org/2000/svg" xmlns:xlink="http://www.w3.org/1999/xlink">
    <!-- Generator: Sketch 48.2 (47327) - http://www.bohemiancoding.com/sketch -->
    <title>n0lletta</title>
    <desc>Created with Sketch.</desc>
    <defs></defs>
    <g id="Desktop" stroke="none" stroke-width="1" fill="none" fill-rule="evenodd" transform="translate(-99.000000, -49.000000)">
        <path d="M113.826667,72.5911111 L110.146667,72.5911111 L110.146667,62.3688889 C110.146667,61.0770306 109.903706,60.1822247 109.417778,59.6844444 C108.931849,59.1866642 108.226671,58.9377778 107.302222,58.9377778 C105.939252,58.9377778 104.828152,59.4888834 103.968889,60.5911111 C103.109625,61.6933388 102.68,63.2162866 102.68,65.16 L102.68,72.5911111 L99,72.5911111 L99,56.0222222 L102.68,56.0222222 L102.68,60.1822222 C103.047409,58.748141 103.728884,57.6311151 104.724444,56.8311111 C105.720005,56.0311071 106.946659,55.6311111 108.404444,55.6311111 C110.099268,55.6311111 111.426662,56.1822167 112.386667,57.2844444 C113.346671,58.3866722 113.826667,60.08147 113.826667,62.3688889 L113.826667,72.5911111 Z M120.322704,60.9822222 C120.322704,59.4296219 120.488629,57.9303776 120.820482,56.4844444 C121.152336,55.0385113 121.667886,53.76445 122.367149,52.6622222 C123.066411,51.5599945 123.981958,50.6740774 125.113815,50.0044444 C126.245673,49.3348115 127.611585,49 129.211593,49 C130.811601,49 132.177513,49.3348115 133.309371,50.0044444 C134.441228,50.6740774 135.362701,51.5599945 136.073815,52.6622222 C136.78493,53.76445 137.30048,55.0385113 137.620482,56.4844444 C137.940484,57.9303776 138.100482,59.4296219 138.100482,60.9822222 C138.100482,62.5348226 137.940484,64.0311039 137.620482,65.4711111 C137.30048,66.9111183 136.790856,68.1911055 136.091593,69.3111111 C135.39233,70.4311167 134.476784,71.3259226 133.344926,71.9955556 C132.213069,72.6651885 130.835305,73 129.211593,73 C127.587881,73 126.210117,72.6651885 125.07826,71.9955556 C123.946402,71.3259226 123.027893,70.4311167 122.322704,69.3111111 C121.617516,68.1911055 121.107891,66.9111183 120.793815,65.4711111 C120.47974,64.0311039 120.322704,62.5348226 120.322704,60.9822222 Z M124.002704,60.9822222 C124.002704,62.072598 124.073815,63.1274023 124.216038,64.1466667 L133.31826,55.0088889 C132.915295,54.2029589 132.38493,53.5511136 131.727149,53.0533333 C131.069368,52.5555531 130.230858,52.3066667 129.211593,52.3066667 C127.51677,52.3066667 126.224931,53.0711035 125.336038,54.6 C124.447144,56.1288965 124.002704,58.2562827 124.002704,60.9822222 Z M129.211593,69.6755556 C130.254561,69.6755556 131.110849,69.4207433 131.780482,68.9111111 C132.450115,68.4014789 132.977517,67.7348189 133.362704,66.9111111 C133.747891,66.0874033 134.020481,65.1540793 134.180482,64.1111111 C134.340483,63.0681429 134.420482,62.0251904 134.420482,60.9822222 C134.420482,59.9866617 134.349372,59.0148196 134.207149,58.0666667 L125.176038,67.1333333 C125.579003,67.9037076 126.097516,68.5199977 126.731593,68.9822222 C127.36567,69.4444468 128.192329,69.6755556 129.211593,69.6755556 Z M157.627631,72.5911111 L146.498742,72.5911111 L146.498742,69.2844444 L150.125409,69.2844444 L150.125409,52.7155556 L146.498742,52.7155556 L146.498742,49.3911111 L153.805409,49.3911111 L153.805409,69.2844444 L157.627631,69.2844444 L157.627631,72.5911111 Z M180.408113,72.5911111 L169.279224,72.5911111 L169.279224,69.2844444 L172.905891,69.2844444 L172.905891,52.7155556 L169.279224,52.7155556 L169.279224,49.3911111 L176.585891,49.3911111 L176.585891,69.2844444 L180.408113,69.2844444 L180.408113,72.5911111 Z M192.628595,65.7111111 C192.806374,66.8488946 193.34859,67.7940703 194.255262,68.5466667 C195.161933,69.299263 196.379698,69.6755556 197.908595,69.6755556 C199.105638,69.6755556 200.145627,69.4888908 201.028595,69.1155556 C201.911562,68.7422204 202.673036,68.2474105 203.313039,67.6311111 L205.197484,70.2266667 C204.130812,71.2933387 203.001934,72.0222203 201.810817,72.4133333 C200.6197,72.8044464 199.318972,73 197.908595,73 C196.628588,73 195.437489,72.7866688 194.335262,72.36 C193.233034,71.9333312 192.278969,71.3377816 191.473039,70.5733333 C190.667109,69.8088851 190.036005,68.8992645 189.579706,67.8444444 C189.123407,66.7896244 188.895262,65.6163028 188.895262,64.3244444 C188.895262,63.0681419 189.10563,61.9096349 189.526373,60.8488889 C189.947115,59.7881428 190.539702,58.8696335 191.30415,58.0933333 C192.068599,57.3170332 192.984145,56.7125948 194.050817,56.28 C195.117489,55.8474052 196.296737,55.6311111 197.588595,55.6311111 C198.927861,55.6311111 200.142663,55.859257 201.233039,56.3155556 C202.323415,56.7718541 203.256739,57.4325883 204.033039,58.2977778 C204.809339,59.1629673 205.416741,60.2207345 205.855262,61.4711111 C206.293782,62.7214877 206.513039,64.1348069 206.513039,65.7111111 L192.628595,65.7111111 Z M202.353039,62.4755556 C202.163409,61.4088836 201.612303,60.5525958 200.699706,59.9066667 C199.787109,59.2607375 198.750082,58.9377778 197.588595,58.9377778 C196.427108,58.9377778 195.384155,59.2607375 194.459706,59.9066667 C193.535257,60.5525958 192.978225,61.4088836 192.788595,62.4755556 L202.353039,62.4755556 Z M228.777966,67.3111111 C228.588335,69.053342 227.903898,70.4370319 226.724632,71.4622222 C225.545367,72.4874125 224.072789,73 222.306855,73 C221.334998,73 220.446118,72.8400016 219.640188,72.52 C218.834258,72.1999984 218.146857,71.7555584 217.577966,71.1866667 C217.009074,70.6177749 216.567597,69.9333373 216.253521,69.1333333 C215.939446,68.3333293 215.78241,67.459264 215.78241,66.5111111 L215.78241,59.3466667 L212.031299,59.3466667 L212.031299,56.0222222 L215.78241,56.0222222 L215.78241,49.3911111 L219.46241,49.3911111 L219.46241,56.0222222 L226.413521,56.0222222 L226.413521,59.3466667 L219.46241,59.3466667 L219.46241,66.5111111 C219.46241,67.5777831 219.723148,68.3718492 220.244632,68.8933333 C220.766117,69.4148174 221.453517,69.6755556 222.306855,69.6755556 C223.349823,69.6755556 224.126111,69.3733364 224.635744,68.7688889 C225.145376,68.1644414 225.447595,67.4355598 225.54241,66.5822222 L228.777966,67.3111111 Z M251.558448,67.3111111 C251.368817,69.053342 250.68438,70.4370319 249.505114,71.4622222 C248.325849,72.4874125 246.853271,73 245.087337,73 C244.11548,73 243.2266,72.8400016 242.42067,72.52 C241.61474,72.1999984 240.92734,71.7555584 240.358448,71.1866667 C239.789556,70.6177749 239.348079,69.9333373 239.034003,69.1333333 C238.719928,68.3333293 238.562892,67.459264 238.562892,66.5111111 L238.562892,59.3466667 L234.811781,59.3466667 L234.811781,56.0222222 L238.562892,56.0222222 L238.562892,49.3911111 L242.242892,49.3911111 L242.242892,56.0222222 L249.194003,56.0222222 L249.194003,59.3466667 L242.242892,59.3466667 L242.242892,66.5111111 C242.242892,67.5777831 242.50363,68.3718492 243.025114,68.8933333 C243.546599,69.4148174 244.233999,69.6755556 245.087337,69.6755556 C246.130305,69.6755556 246.906593,69.3733364 247.416226,68.7688889 C247.925858,68.1644414 248.228077,67.4355598 248.322892,66.5822222 L251.558448,67.3111111 Z M257.521152,67.8266667 C257.521152,66.85481 257.78189,66.0044481 258.303374,65.2755556 C258.824858,64.546663 259.509296,63.9392617 260.356708,63.4533333 C261.204119,62.967405 262.175961,62.6029642 263.272263,62.36 C264.368565,62.1170358 265.485591,61.9955556 266.623374,61.9955556 C267.251526,61.9955556 267.790779,62.0074073 268.241152,62.0311111 C268.691525,62.0548149 269.147816,62.0903701 269.610041,62.1377778 L269.610041,61.48 C269.610041,60.6148105 269.275229,59.968891 268.605597,59.5422222 C267.935964,59.1155534 267.055972,58.9022222 265.965597,58.9022222 C264.970036,58.9022222 263.956713,59.0414801 262.925597,59.32 C261.89448,59.5985199 260.916712,60.0044418 259.992263,60.5377778 L258.49893,57.6577778 C259.589306,57.0296265 260.759664,56.5348166 262.010041,56.1733333 C263.260418,55.81185 264.578923,55.6311111 265.965597,55.6311111 C266.866342,55.6311111 267.752259,55.7318508 268.623374,55.9333333 C269.49449,56.1348158 270.276704,56.4666644 270.970041,56.9288889 C271.663378,57.3911134 272.217446,57.9925889 272.632263,58.7333333 C273.04708,59.4740778 273.254485,60.3896242 273.254485,61.48 L273.254485,72.5911111 L269.610041,72.5911111 L269.610041,70.1555556 C269.029297,71.0563008 268.17301,71.7555531 267.041152,72.2533333 C265.909295,72.7511136 264.691529,73 263.387819,73 C262.581889,73 261.820415,72.8903715 261.103374,72.6711111 C260.386334,72.4518508 259.767081,72.1229652 259.245597,71.6844444 C258.724112,71.2459237 258.306339,70.7037069 257.992263,70.0577778 C257.678188,69.4118486 257.521152,68.6681524 257.521152,67.8266667 Z M264.330041,69.7111111 C265.053008,69.7111111 265.731519,69.6192602 266.365597,69.4355556 C266.999674,69.2518509 267.559668,68.9970387 268.045597,68.6711111 C268.531525,68.3451836 268.913743,67.9511134 269.192263,67.4888889 C269.470783,67.0266644 269.610041,66.5170398 269.610041,65.96 L269.610041,65.3377778 C269.029297,65.2429625 268.484118,65.1896297 267.974485,65.1777778 C267.464853,65.1659259 267.014487,65.16 266.623374,65.16 C264.821884,65.16 263.461897,65.3970347 262.543374,65.8711111 C261.624851,66.3451876 261.165597,66.9318484 261.165597,67.6311111 C261.165597,69.0177847 262.220401,69.7111111 264.330041,69.7111111 Z" id="n0lletta" fill="#307CD5"></path>
    </g>
</svg>