<?xml version="1.0" encoding="UTF-8"?>
<svg width="30px" height="24px" viewBox="0 0 30 24" version="1.1" xmlns="http://www.w3.org/2000/svg" xmlns:xlink="http://www.w3.org/1999/xlink">
    <!-- Generator: Sketch 48.2 (47327) - http://www.bohemiancoding.com/sketch -->
    <title>Twitter</title>
    <desc>Created with Sketch.</desc>
    <defs></defs>
    <g id="Desktop" stroke="none" stroke-width="1" fill="none" fill-rule="evenodd" transform="translate(-449.000000, -1084.000000)">
        <g id="Social-Icons" transform="translate(449.000000, 1084.000000)" fill="#444444">
            <g id="Twitter">
                <path d="M29.5327822,2.84068448 C28.4465295,3.32243799 27.2781388,3.6482215 26.0525284,3.79496251 C27.30398,3.04464526 28.2647183,1.85779658 28.7169391,0.442991732 C27.5467026,1.13701211 26.2491059,1.64091521 24.8693713,1.91317054 C23.7637377,0.735550856 22.1892713,0 20.4468371,0 C17.1004038,0 14.3880023,2.71240146 14.3880023,6.05883484 C14.3880023,6.53320515 14.4415305,6.99557777 14.5448952,7.43949241 C9.50863296,7.18661796 5.04456835,4.77415882 2.05621996,1.10840223 C1.53478177,2.00361469 1.23576235,3.04464526 1.23576235,4.15489329 C1.23576235,6.25633532 2.30540281,8.1113632 3.93062873,9.19761584 C2.93758893,9.16623726 2.00361469,8.89398193 1.18684868,8.4399154 C1.18592578,8.46575659 1.18592578,8.49067487 1.18592578,8.51651605 C1.18592578,11.4522592 3.27444722,13.9007114 6.04683715,14.4572198 C5.53831955,14.5956547 5.00303788,14.6694866 4.45022111,14.6694866 C4.05983465,14.6694866 3.68052298,14.6316478 3.3104403,14.5615074 C4.08106133,16.9684291 6.31909248,18.7200923 8.97058258,18.769006 C6.89682753,20.3942319 4.28409921,21.3623534 1.44526053,21.3623534 C0.956123822,21.3623534 0.474370313,21.3337435 0,21.2783695 C2.68102288,22.9968083 5.86594886,24 9.28805999,24 C20.4329937,24 26.5268987,14.767314 26.5268987,6.76116132 C26.5268987,6.49813497 26.5213613,6.23695443 26.5093636,5.97669679 C27.6934436,5.1230148 28.7206306,4.05614305 29.5327822,2.84068448" id="Fill-1"></path>
            </g>
        </g>
    </g>
</svg>